# xmcd
#
# Track frame offsets:
# 150
# 8511
# 24604
# 42426
# 58191
# 78359
# 103609
# 126359
# 143485
# 163039
# 187418
# 206150
# 215221
# 233857
# 253792
# 267450
#
# Disc length: 3794 seconds
#
#
# Revision: 28
# Processed by: cddbd v1.5.1PL0 Copyright (c) Steve Scherf et al.
# Submitted via: FreeRIP 2.941 
#
DISCID=f20ed010
DTITLE=Alicia Keys - Songs In A Minor
DYEAR=2001
DGENRE=Soul
TTITLE0=Piano and I
TTITLE1=Girlfriend
TTITLE2=How Come You Don't Call Me
TTITLE3=Fallin'
TTITLE4=Troubles
TTITLE5=Rock Wit U
TTITLE6=A Woman's Worth
TTITLE7=Jane Doe
TTITLE8=Goodbye
TTITLE9=The Life
TTITLE10=Mr. Man (Duet With Jimmy Cozier)
TTITLE11=Never Felt This Way (Interlude)
TTITLE12=Butterflyz
TTITLE13=Why Do I Feel So Sad
TTITLE14=Caged Bird
TTITLE15=Loving U
EXTD=YEAR: 2001
EXTT0=
EXTT1=
EXTT2=
EXTT3=
EXTT4=
EXTT5=
EXTT6=
EXTT7=
EXTT8=
EXTT9=
EXTT10=
EXTT11=
EXTT12=
EXTT13=
EXTT14=
EXTT15=
PLAYORDER=
